<svg xmlns="http://www.w3.org/2000/svg" width="760" height="440" viewBox="0 0 760 440">
<rect width="100%" height="100%" fill="#ffffff"/>
<text x="70" y="28" font-family="Arial, sans-serif" font-size="17" font-weight="700" fill="#242424">1-6 | QE | Em=0.8204</text>
<text x="70" y="48" font-family="Arial, sans-serif" font-size="12" fill="#60656f">stopped_unconverged</text>
<line x1="70" x2="732" y1="341.6" y2="341.6" stroke="#9ca3af" stroke-dasharray="4 4"/>
<line x1="70" x2="70" y1="58" y2="372" stroke="#374151"/>
<line x1="70" x2="732" y1="372" y2="372" stroke="#374151"/>
<polyline points="70.0,341.6 235.5,232.2 401.0,123.4 566.5,213.8 732.0,88.4" fill="none" stroke="#2563eb" stroke-width="2.8" stroke-linejoin="round" stroke-linecap="round"/>
<circle cx="70.0" cy="341.6" r="5" fill="#ffffff" stroke="#2563eb" stroke-width="2"/>
<text x="70.0" y="396" text-anchor="middle" font-family="Arial, sans-serif" font-size="12" fill="#374151">1</text>
<text x="70.0" y="331.6" text-anchor="middle" font-family="Arial, sans-serif" font-size="11" fill="#111827">0.000</text>
<circle cx="235.5" cy="232.2" r="5" fill="#2563eb" stroke="#2563eb" stroke-width="2"/>
<text x="235.5" y="396" text-anchor="middle" font-family="Arial, sans-serif" font-size="12" fill="#374151">2</text>
<text x="235.5" y="222.2" text-anchor="middle" font-family="Arial, sans-serif" font-size="11" fill="#111827">0.354</text>
<circle cx="401.0" cy="123.4" r="5" fill="#2563eb" stroke="#2563eb" stroke-width="2"/>
<text x="401.0" y="396" text-anchor="middle" font-family="Arial, sans-serif" font-size="12" fill="#374151">3</text>
<text x="401.0" y="113.4" text-anchor="middle" font-family="Arial, sans-serif" font-size="11" fill="#111827">0.707</text>
<circle cx="566.5" cy="213.8" r="5" fill="#2563eb" stroke="#2563eb" stroke-width="2"/>
<text x="566.5" y="396" text-anchor="middle" font-family="Arial, sans-serif" font-size="12" fill="#374151">4</text>
<text x="566.5" y="203.8" text-anchor="middle" font-family="Arial, sans-serif" font-size="11" fill="#111827">0.414</text>
<circle cx="732.0" cy="88.4" r="5" fill="#ffffff" stroke="#2563eb" stroke-width="2"/>
<text x="732.0" y="396" text-anchor="middle" font-family="Arial, sans-serif" font-size="12" fill="#374151">5</text>
<text x="732.0" y="78.4" text-anchor="middle" font-family="Arial, sans-serif" font-size="11" fill="#111827">0.820</text>
<line x1="66" x2="70" y1="372.0" y2="372.0" stroke="#374151"/>
<text x="60" y="376.0" text-anchor="end" font-family="Arial, sans-serif" font-size="11" fill="#374151">-0.10</text>
<line x1="66" x2="70" y1="293.5" y2="293.5" stroke="#374151"/>
<text x="60" y="297.5" text-anchor="end" font-family="Arial, sans-serif" font-size="11" fill="#374151">0.16</text>
<line x1="66" x2="70" y1="215.0" y2="215.0" stroke="#374151"/>
<text x="60" y="219.0" text-anchor="end" font-family="Arial, sans-serif" font-size="11" fill="#374151">0.41</text>
<line x1="66" x2="70" y1="136.5" y2="136.5" stroke="#374151"/>
<text x="60" y="140.5" text-anchor="end" font-family="Arial, sans-serif" font-size="11" fill="#374151">0.66</text>
<line x1="66" x2="70" y1="58.0" y2="58.0" stroke="#374151"/>
<text x="60" y="62.0" text-anchor="end" font-family="Arial, sans-serif" font-size="11" fill="#374151">0.92</text>
<text x="380.0" y="418" text-anchor="middle" font-family="Arial, sans-serif" font-size="13" fill="#374151">NEB image index</text>
<text transform="translate(20 220.0) rotate(-90)" text-anchor="middle" font-family="Arial, sans-serif" font-size="13" fill="#374151">Relative energy vs image 1 (eV)</text>
<text x="70" y="434" font-family="Arial, sans-serif" font-size="10" fill="#6b7280">mb_qe16_direct_pf_s42_30791500</text>
</svg>
