<svg xmlns="http://www.w3.org/2000/svg" width="760" height="440" viewBox="0 0 760 440">
<rect width="100%" height="100%" fill="#ffffff"/>
<text x="70" y="28" font-family="Arial, sans-serif" font-size="17" font-weight="700" fill="#242424">81_neb_4 | historical_QE_candidate | Em=2.063858</text>
<text x="70" y="48" font-family="Arial, sans-serif" font-size="12" fill="#60656f">historical_candidate_quarantine</text>
<line x1="70" x2="732" y1="341.6" y2="341.6" stroke="#9ca3af" stroke-dasharray="4 4"/>
<line x1="70" x2="70" y1="58" y2="372" stroke="#374151"/>
<line x1="70" x2="732" y1="372" y2="372" stroke="#374151"/>
<polyline points="70.0,341.6 143.6,320.2 217.1,253.7 290.7,168.7 364.2,108.5 437.8,88.4 511.3,119.5 584.9,197.2 658.4,255.3 732.0,277.8" fill="none" stroke="#2563eb" stroke-width="2.8" stroke-linejoin="round" stroke-linecap="round"/>
<circle cx="70.0" cy="341.6" r="5" fill="#2563eb" stroke="#2563eb" stroke-width="2"/>
<text x="70.0" y="396" text-anchor="middle" font-family="Arial, sans-serif" font-size="12" fill="#374151">1</text>
<text x="70.0" y="331.6" text-anchor="middle" font-family="Arial, sans-serif" font-size="11" fill="#111827">0.000</text>
<circle cx="143.6" cy="320.2" r="5" fill="#2563eb" stroke="#2563eb" stroke-width="2"/>
<text x="143.6" y="396" text-anchor="middle" font-family="Arial, sans-serif" font-size="12" fill="#374151">2</text>
<text x="143.6" y="310.2" text-anchor="middle" font-family="Arial, sans-serif" font-size="11" fill="#111827">0.175</text>
<circle cx="217.1" cy="253.7" r="5" fill="#2563eb" stroke="#2563eb" stroke-width="2"/>
<text x="217.1" y="396" text-anchor="middle" font-family="Arial, sans-serif" font-size="12" fill="#374151">3</text>
<text x="217.1" y="243.7" text-anchor="middle" font-family="Arial, sans-serif" font-size="11" fill="#111827">0.716</text>
<circle cx="290.7" cy="168.7" r="5" fill="#2563eb" stroke="#2563eb" stroke-width="2"/>
<text x="290.7" y="396" text-anchor="middle" font-family="Arial, sans-serif" font-size="12" fill="#374151">4</text>
<text x="290.7" y="158.7" text-anchor="middle" font-family="Arial, sans-serif" font-size="11" fill="#111827">1.409</text>
<circle cx="364.2" cy="108.5" r="5" fill="#2563eb" stroke="#2563eb" stroke-width="2"/>
<text x="364.2" y="396" text-anchor="middle" font-family="Arial, sans-serif" font-size="12" fill="#374151">5</text>
<text x="364.2" y="98.5" text-anchor="middle" font-family="Arial, sans-serif" font-size="11" fill="#111827">1.900</text>
<circle cx="437.8" cy="88.4" r="5" fill="#2563eb" stroke="#2563eb" stroke-width="2"/>
<text x="437.8" y="396" text-anchor="middle" font-family="Arial, sans-serif" font-size="12" fill="#374151">6</text>
<text x="437.8" y="78.4" text-anchor="middle" font-family="Arial, sans-serif" font-size="11" fill="#111827">2.064</text>
<circle cx="511.3" cy="119.5" r="5" fill="#2563eb" stroke="#2563eb" stroke-width="2"/>
<text x="511.3" y="396" text-anchor="middle" font-family="Arial, sans-serif" font-size="12" fill="#374151">7</text>
<text x="511.3" y="109.5" text-anchor="middle" font-family="Arial, sans-serif" font-size="11" fill="#111827">1.811</text>
<circle cx="584.9" cy="197.2" r="5" fill="#2563eb" stroke="#2563eb" stroke-width="2"/>
<text x="584.9" y="396" text-anchor="middle" font-family="Arial, sans-serif" font-size="12" fill="#374151">8</text>
<text x="584.9" y="187.2" text-anchor="middle" font-family="Arial, sans-serif" font-size="11" fill="#111827">1.177</text>
<circle cx="658.4" cy="255.3" r="5" fill="#2563eb" stroke="#2563eb" stroke-width="2"/>
<text x="658.4" y="396" text-anchor="middle" font-family="Arial, sans-serif" font-size="12" fill="#374151">9</text>
<text x="658.4" y="245.3" text-anchor="middle" font-family="Arial, sans-serif" font-size="11" fill="#111827">0.703</text>
<circle cx="732.0" cy="277.8" r="5" fill="#2563eb" stroke="#2563eb" stroke-width="2"/>
<text x="732.0" y="396" text-anchor="middle" font-family="Arial, sans-serif" font-size="12" fill="#374151">10</text>
<text x="732.0" y="267.8" text-anchor="middle" font-family="Arial, sans-serif" font-size="11" fill="#111827">0.520</text>
<line x1="66" x2="70" y1="372.0" y2="372.0" stroke="#374151"/>
<text x="60" y="376.0" text-anchor="end" font-family="Arial, sans-serif" font-size="11" fill="#374151">-0.25</text>
<line x1="66" x2="70" y1="293.5" y2="293.5" stroke="#374151"/>
<text x="60" y="297.5" text-anchor="end" font-family="Arial, sans-serif" font-size="11" fill="#374151">0.39</text>
<line x1="66" x2="70" y1="215.0" y2="215.0" stroke="#374151"/>
<text x="60" y="219.0" text-anchor="end" font-family="Arial, sans-serif" font-size="11" fill="#374151">1.03</text>
<line x1="66" x2="70" y1="136.5" y2="136.5" stroke="#374151"/>
<text x="60" y="140.5" text-anchor="end" font-family="Arial, sans-serif" font-size="11" fill="#374151">1.67</text>
<line x1="66" x2="70" y1="58.0" y2="58.0" stroke="#374151"/>
<text x="60" y="62.0" text-anchor="end" font-family="Arial, sans-serif" font-size="11" fill="#374151">2.31</text>
<text x="380.0" y="418" text-anchor="middle" font-family="Arial, sans-serif" font-size="13" fill="#374151">NEB image index</text>
<text transform="translate(20 220.0) rotate(-90)" text-anchor="middle" font-family="Arial, sans-serif" font-size="13" fill="#374151">Relative energy vs image 1 (eV)</text>
<text x="70" y="434" font-family="Arial, sans-serif" font-size="10" fill="#6b7280">historical_2D_421_neb_4</text>
</svg>
